<svg id="Layer_1" data-name="Layer 1" xmlns="http://www.w3.org/2000/svg" viewBox="0 0 128 128"><title>NEWSPAPER</title><path d="M123.25,39.31H91.833V4.75A4.755,4.755,0,0,0,87.083,0H4.75A4.755,4.755,0,0,0,0,4.75v103.5A19.772,19.772,0,0,0,19.75,128h88.417A19.856,19.856,0,0,0,128,108.167V44.06A4.755,4.755,0,0,0,123.25,39.31ZM96.927,124.5H19.75A16.269,16.269,0,0,1,3.5,108.25V4.75A1.251,1.251,0,0,1,4.75,3.5H87.083a1.251,1.251,0,0,1,1.25,1.25V108.167A20.026,20.026,0,0,0,96.927,124.5ZM124.5,108.167a16.333,16.333,0,1,1-32.667,0V42.81H123.25a1.251,1.251,0,0,1,1.25,1.25Z"/><path d="M11,63.517H50.5a1.75,1.75,0,0,0,1.75-1.75V34.875a1.75,1.75,0,0,0-1.75-1.75H11a1.75,1.75,0,0,0-1.75,1.75V61.767A1.75,1.75,0,0,0,11,63.517Zm1.75-26.892h36V60.017h-36Z"/><path d="M80.5,33.125H59.751a1.75,1.75,0,0,0,0,3.5H80.5a1.75,1.75,0,0,0,0-3.5Z"/><path d="M80.5,42.088H59.751a1.75,1.75,0,0,0,0,3.5H80.5a1.75,1.75,0,0,0,0-3.5Z"/><path d="M80.5,51.053H59.751a1.75,1.75,0,0,0,0,3.5H80.5a1.75,1.75,0,0,0,0-3.5Z"/><path d="M80.5,60.017H59.751a1.75,1.75,0,0,0,0,3.5H80.5a1.75,1.75,0,0,0,0-3.5Z"/><path d="M80.5,68.981H11a1.75,1.75,0,1,0,0,3.5H80.5a1.75,1.75,0,0,0,0-3.5Z"/><path d="M80.5,77.945H11a1.75,1.75,0,1,0,0,3.5H80.5a1.75,1.75,0,0,0,0-3.5Z"/><path d="M80.5,86.909H11a1.75,1.75,0,1,0,0,3.5H80.5a1.75,1.75,0,0,0,0-3.5Z"/><path d="M80.5,95.874H11a1.75,1.75,0,1,0,0,3.5H80.5a1.75,1.75,0,0,0,0-3.5Z"/><path d="M80.5,104.837H11a1.75,1.75,0,1,0,0,3.5H80.5a1.75,1.75,0,0,0,0-3.5Z"/><path d="M30.047,28.021H42.4a1.75,1.75,0,0,0,0-3.5H31.8V20.458H40a1.75,1.75,0,0,0,0-3.5H31.8V12.895H42.4a1.75,1.75,0,0,0,0-3.5H30.047a1.75,1.75,0,0,0-1.75,1.75V26.271A1.75,1.75,0,0,0,30.047,28.021Z"/><path d="M11,28.021a1.75,1.75,0,0,0,1.75-1.75V16.053L22,27.378A1.75,1.75,0,0,0,25.1,26.271V11.145a1.75,1.75,0,0,0-3.5,0V21.362l-9.25-11.325a1.75,1.75,0,0,0-3.105,1.107V26.271A1.75,1.75,0,0,0,11,28.021Z"/><path d="M50.111,26.583a1.75,1.75,0,0,0,3.174.665l1.988-2.956,1.987,2.956a1.75,1.75,0,0,0,3.174-.665l2.738-15.126a1.75,1.75,0,1,0-3.443-.623L57.759,21.716l-1.033-1.537a1.75,1.75,0,0,0-2.9,0l-1.034,1.538-1.97-10.883a1.75,1.75,0,1,0-3.443.623Z"/><path d="M80.5,12.895a1.75,1.75,0,0,0,0-3.5H68.144a1.75,1.75,0,0,0-1.75,1.75v7.563a1.75,1.75,0,0,0,1.75,1.75H78.749v4.063H68.144a1.75,1.75,0,0,0,0,3.5H80.5a1.75,1.75,0,0,0,1.75-1.75V18.708a1.75,1.75,0,0,0-1.75-1.75H69.894V12.895Z"/></svg>